<svg xmlns="http://www.w3.org/2000/svg" width="640" height="1136" viewBox="0 0 640 1136">
  <rect width="640" height="1136" fill="#f0fdf4"/>
  <rect x="0" y="0" width="640" height="64" fill="#22c55e"/>
  <text x="40" y="42" fill="white" font-family="Arial, sans-serif" font-size="24" font-weight="bold">FreshMart</text>
  <rect x="20" y="100" width="600" height="200" rx="12" fill="white" stroke="#e5e7eb" stroke-width="2"/>
  <rect x="40" y="120" width="560" height="120" rx="8" fill="#dcfce7"/>
  <text x="320" y="190" text-anchor="middle" fill="#22c55e" font-family="Arial, sans-serif" font-size="20">Fresh Vegetables</text>
  <rect x="20" y="320" width="600" height="200" rx="12" fill="white" stroke="#e5e7eb" stroke-width="2"/>
  <rect x="40" y="340" width="560" height="120" rx="8" fill="#fef9c3"/>
  <text x="320" y="410" text-anchor="middle" fill="#ca8a04" font-family="Arial, sans-serif" font-size="20">Fresh Fruits</text>
  <rect x="20" y="540" width="600" height="200" rx="12" fill="white" stroke="#e5e7eb" stroke-width="2"/>
  <rect x="40" y="560" width="560" height="120" rx="8" fill="#dbeafe"/>
  <text x="320" y="630" text-anchor="middle" fill="#2563eb" font-family="Arial, sans-serif" font-size="20">Dairy Products</text>
  <text x="320" y="820" text-anchor="middle" fill="#374151" font-family="Arial, sans-serif" font-size="24" font-weight="bold">Fresh Groceries</text>
  <text x="320" y="860" text-anchor="middle" fill="#374151" font-family="Arial, sans-serif" font-size="24" font-weight="bold">Delivered Daily</text>
  <text x="320" y="920" text-anchor="middle" fill="#6b7280" font-family="Arial, sans-serif" font-size="16">Quality products at best prices</text>
  <rect x="0" y="1056" width="640" height="80" fill="white" stroke="#e5e7eb" stroke-width="1"/>
  <circle cx="120" cy="1096" r="24" fill="#f3f4f6"/>
  <circle cx="320" cy="1096" r="24" fill="#22c55e"/>
  <circle cx="520" cy="1096" r="24" fill="#f3f4f6"/>
</svg>
